#!OML:ASF H:\Terrain\Patient Classification 1\Walking\liu\liu.ASF
:FULLY-SPECIFIED
:DEGREES
401
root 9.45978 17.1953 33.1439 4.94023 3.04897 -4.04786
lowerback -6.86207 -2.72556 -0.131799
upperback 0.262845 -3.81598 4.3678
thorax 4.43391 -1.95196 4.20907
lowerneck -24.9277 -3.89114 -11.0966
upperneck 24.5039 -4.43114 10.8446
head 12.834 -1.55054 5.29567
rclavicle -7.72775e-015 1.35174e-014
rhumerus -41.7959 -9.05883 -72.2202
rradius 19.5745
rwrist -2.75846
rhand -29.2404 -20.428
rfingers 7.12502
rthumb -2.58388 -50.3921
lclavicle -7.72775e-015 1.35174e-014
lhumerus -22.6334 -17.9759 93.4932
lradius 31.257
lwrist 5.87062
lhand -11.4068 -27.5192
lfingers 7.12502
lthumb 14.6286 1.94481
rfemur -24.2915 2.37996 30.3497
rtibia 33.846
rfoot -13.9139 2.6327
rtoes -14.5732
lfemur -10.8627 12.0757 -13.0165
ltibia 67.2338
lfoot -0.940156 13.1823
ltoes -1.61578
402
root 9.47603 17.2508 33.3861 4.60185 3.15362 -3.05105
lowerback -5.81432 -2.86627 -1.00318
upperback -0.672347 -3.87658 4.03638
thorax 2.91229 -1.97086 4.41476
lowerneck -23.7902 -3.39986 -10.5014
upperneck 25.1895 -3.9645 10.2911
head 12.7874 -1.39278 5.07448
rclavicle 1.47349e-014 -1.03368e-014
rhumerus -43.0363 -6.47405 -73.6716
rradius 20.5616
rwrist -4.05232
rhand -29.5558 -21.0263
rfingers 7.12502
rthumb -2.88847 -50.9865
lclavicle 1.47349e-014 -1.03368e-014
lhumerus -25.5878 -17.1083 94.2205
lradius 30.8903
lwrist 5.0721
lhand -11.0729 -27.3599
lfingers 7.12502
lthumb 14.9503 2.08049
rfemur -22.6129 1.38701 29.2561
rtibia 33.5518
rfoot -14.8784 3.47486
rtoes -15.8755
lfemur -11.2825 11.5743 -14.531
ltibia 67.663
lfoot -2.39076 14.2069
ltoes -2.86047
403
root 9.48421 17.2947 33.6114 4.0663 3.27276 -1.81468
lowerback -7.86809 -2.87584 -2.27508
upperback 1.27988 -3.82155 3.51154
thorax 6.15548 -2.03437 4.45797
lowerneck -25.2745 -3.7023 -10.0875
upperneck 24.3396 -4.24316 9.95448
head 12.7595 -1.47832 4.79136
rclavicle 8.79622e-015 -3.4191e-014
rhumerus -39.7038 -5.81573 -75.538
rradius 21.0573
rwrist -4.90722
rhand -29.0673 -21.4548
rfingers 7.12502
rthumb -2.4167 -51.4209
lclavicle 8.79622e-015 -3.4191e-014
lhumerus -23.485 -17.6289 93.5307
lradius 30.0915
lwrist 5.01576
lhand -10.8945 -27.3851
lfingers 7.12502
lthumb 15.1221 2.04246
rfemur -20.7781 0.233692 27.9222
rtibia 33.154
rfoot -15.653 4.30043
rtoes -17.4383
lfemur -11.7471 10.9744 -16.2654
ltibia 68.1466
lfoot -3.68137 14.9147
ltoes -1.7339
404
root 9.50467 17.3312 33.7935 3.87962 2.61373 -1.26288
lowerback -7.10971 -2.57581 -2.52089
upperback 0.775928 -3.37902 3.25899
thorax 5.14718 -1.79547 4.42742
lowerneck -24.0779 -3.48552 -10.2238
upperneck 24.0917 -4.03051 10.1151
head 12.4053 -1.40178 4.89721
rclavicle -5.73991e-015 -1.03368e-014
rhumerus -40.3004 -3.73433 -76.8484
rradius 22.1742
rwrist -6.18749
rhand -27.857 -21.9338
rfingers 7.12502
rthumb -1.24784 -51.9099
lclavicle -5.73991e-015 -1.03368e-014
lhumerus -25.4105 -16.8401 94.0383
lradius 29.5289
lwrist 3.96726
lhand -10.8079 -27.9151
lfingers 7.12502
lthumb 15.2055 1.50618
rfemur -19.4929 0.010645 27.2565
rtibia 32.6943
rfoot -16.337 5.04731
rtoes -18.0911
lfemur -12.7827 11.1312 -17.3377
ltibia 68.7071
lfoot -4.15994 15.2791
ltoes 3.63459
405
root 9.49379 17.3423 33.886 4.58539 2.23251 -2.36619
lowerback -4.96421 -2.20214 -1.2175
upperback -1.29227 -2.93874 3.48004
thorax 1.69572 -1.47861 4.0824
lowerneck -22.5821 -3.37106 -10.4534
upperneck 25.1681 -4.04014 10.2082
head 12.5422 -1.45979 5.00778
rclavicle 2.02667e-016 1.59028e-014
rhumerus -42.723 -1.82498 -77.878
rradius 23.5089
rwrist -7.31161
rhand -27.5775 -23.4974
rfingers 7.12502
rthumb -0.977832 -53.4749
lclavicle 2.02667e-016 1.59028e-014
lhumerus -29.3003 -15.932 94.8869
lradius 29.3066
lwrist 2.67465
lhand -10.7105 -28.2271
lfingers 7.12502
lthumb 15.2994 1.187
rfemur -19.6446 1.38083 28.5749
rtibia 32.1197
rfoot -16.4615 4.12051
rtoes -18.8489
lfemur -16.0162 11.5289 -16.3879
ltibia 69.927
lfoot -5.81305 14.9092
ltoes -1.84565
406
root 9.47835 17.3477 33.9965 4.93826 2.04792 -2.99495
lowerback -4.69161 -1.88785 -0.607581
upperback -1.47267 -2.54239 3.55468
thorax 1.30266 -1.27213 3.85495
lowerneck -23.0265 -3.7253 -11.6613
upperneck 25.5226 -4.54956 11.7521
head 12.9209 -1.59701 5.77831
rclavicle 1.77431e-014 -3.18055e-015
rhumerus -42.0406 -0.767865 -78.9426
rradius 24.2958
rwrist -8.06971
rhand -28.5536 -24.8743
rfingers 7.12502
rthumb -1.92061 -54.8454
lclavicle 1.77431e-014 -3.18055e-015
lhumerus -30.1029 -16.2522 95.0668
lradius 28.8945
lwrist 2.46505
lhand -10.9309 -28.1561
lfingers 7.12502
lthumb 15.0871 1.27409
rfemur -19.2998 2.34849 29.3706
rtibia 31.4048
rfoot -16.4134 3.25761
rtoes -19.9755
lfemur -18.695 11.687 -15.921
ltibia 70.9044
lfoot -6.5604 14.5294
ltoes -3.57934
407
root 9.4909 17.3676 34.1629 4.8219 1.38793 -2.79286
lowerback -5.23694 -1.43825 -0.588619
upperback -0.864152 -1.96245 3.35231
thorax 2.18419 -0.995817 3.64957
lowerneck -23.0904 -3.97904 -11.5906
upperneck 24.8849 -4.728 11.2528
head 12.6872 -1.7258 5.49671
rclavicle 9.97651e-015 4.37326e-014
rhumerus -40.4339 0.20877 -79.9328
rradius 24.8285
rwrist -9.05663
rhand -29.1723 -24.7703
rfingers 7.12502
rthumb -2.51807 -54.7352
lclavicle 9.97651e-015 4.37326e-014
lhumerus -30.0643 -16.5398 95.0894
lradius 28.3953
lwrist 2.29438
lhand -11.2733 -28.2062
lfingers 7.12502
lthumb 14.7572 1.2485
rfemur -18.11 2.80973 29.0954
rtibia 30.7184
rfoot -16.6802 3.30494
rtoes -20.0425
lfemur -19.983 11.9191 -16.497
ltibia 71.4014
lfoot -7.91224 14.3928
ltoes -4.2997
408
root 9.50871 17.3876 34.3651 4.8402 1.02165 -3.12262
lowerback -6.56154 -1.15148 -0.00741016
upperback -0.0742377 -1.65997 3.3288
thorax 3.70526 -0.855573 3.29184
lowerneck -23.4398 -4.22754 -11.7708
upperneck 24.3337 -4.9302 11.2506
head 12.5728 -1.8191 5.46655
rclavicle -1.04362e-015 -1.35174e-014
rhumerus -38.5669 1.29888 -80.8366
rradius 25.4507
rwrist -10.0251
rhand -31.6646 -21.7773
rfingers 7.12502
rthumb -4.92484 -51.7001
lclavicle -1.04362e-015 -1.35174e-014
lhumerus -29.8441 -16.4685 94.9325
lradius 27.9484
lwrist 2.10966
lhand -11.5852 -28.0835
lfingers 7.12502
lthumb 14.4567 1.39293
rfemur -17.2052 2.63138 29.3833
rtibia 30.6369
rfoot -17.2489 3.8367
rtoes -19.6297
lfemur -21.2676 11.9443 -16.4937
ltibia 71.8626
lfoot -9.67439 14.0116
ltoes -4.90463
409
root 9.50133 17.3768 34.5075 5.01811 0.671397 -3.79673
lowerback -6.99978 -0.979037 0.525589
upperback 0.221391 -1.49763 3.47679
thorax 4.24006 -0.770543 3.15535
lowerneck -23.5691 -4.19404 -11.54
upperneck 23.8836 -4.89793 11.1826
head 12.4069 -1.78424 5.38437
rclavicle -2.06239e-015 5.08889e-014
rhumerus -37.4049 3.13405 -82.0414
rradius 26.0412
rwrist -10.3527
rhand -39.5993 -11.2773
rfingers 7.12502
rthumb -12.5815 -40.8784
lclavicle -2.06239e-015 5.08889e-014
lhumerus -30.1932 -16.517 94.8084
lradius 27.5963
lwrist 2.46365
lhand -12.039 -27.8987
lfingers 7.12502
lthumb 14.0194 1.6085
rfemur -16.8101 3.61516 30.1993
rtibia 30.4775
rfoot -17.4033 3.32259
rtoes -17.1039
lfemur -23.3502 12.0937 -15.9923
ltibia 72.245
lfoot -10.8248 13.4828
ltoes -5.652
410
root 9.45428 17.2948 34.4531 5.54721 -0.106267 -4.17068
lowerback -4.9182 -0.724731 0.0776789
upperback -0.426683 -1.0632 3.68252
thorax 2.3888 -0.547982 3.68334
lowerneck -23.6068 -4.09024 -11.2659
upperneck 23.8907 -4.83813 11.1425
head 12.3994 -1.73585 5.33206
rclavicle -1.12065e-014 5.04913e-014
rhumerus -37.1031 5.93463 -83.7516
rradius 26.5949
rwrist -10.404
rhand -32.9285 -24.4552
rfingers 7.12502
rthumb -6.14519 -54.3461
lclavicle -1.12065e-014 5.04913e-014
lhumerus -31.1547 -16.0811 94.6784
lradius 27.3423
lwrist 2.57989
lhand -12.2644 -28.0047
lfingers 7.12502
lthumb 13.8022 1.51739
rfemur -17.9048 7.03417 30.8074
rtibia 30.4023
rfoot -16.6272 0.80977
rtoes -16.553
lfemur -27.6964 12.7118 -15.8285
ltibia 73.1267
lfoot -10.5435 13.1663
ltoes -7.29968
411
root 9.47576 17.3371 34.6747 5.55184 -0.282344 -4.19774
lowerback -5.35539 -0.572068 0.443876
upperback -0.350801 -0.888814 3.52318
thorax 2.69272 -0.458213 3.32008
lowerneck -24.0773 -4.41991 -11.8033
upperneck 24.2745 -5.27008 11.7584
head 12.7458 -1.88933 5.61896
rclavicle 1.31943e-014 3.18055e-015
rhumerus -36.8685 8.10744 -85.0151
rradius 27.7727
rwrist -11.5829
rhand -31.1994 -26.4011
rfingers 7.12502
rthumb -4.47566 -56.3338
lclavicle 1.31943e-014 3.18055e-015
lhumerus -32.1686 -15.1933 94.4632
lradius 27.1661
lwrist 2.37608
lhand -11.9114 -28.0327
lfingers 7.12502
lthumb 14.1424 1.46596
rfemur -16.7247 6.5573 30.8207
rtibia 30.0589
rfoot -17.1462 1.48849
rtoes -16.2912
lfemur -28.5788 12.3926 -16.1921
ltibia 72.7069
lfoot -11.6981 13.1534
ltoes -8.79448
412
root 9.47728 17.3651 34.8335 5.52759 -0.833243 -4.18889
lowerback -2.81277 -0.250835 0.607882
upperback -2.30423 -0.334421 3.38781
thorax -0.770756 -0.150381 3.13265
lowerneck -22.1807 -4.33452 -12.6272
upperneck 25.3035 -5.27849 12.1624
head 12.8164 -1.9846 5.96743
rclavicle 8.09426e-015 8.74653e-015
rhumerus -39.7051 9.0669 -85.8033
rradius 29.9737
rwrist -13.7027
rhand -29.1452 -27.7122
rfingers 7.12502
rthumb -2.49197 -57.6774
lclavicle 8.09426e-015 8.74653e-015
lhumerus -36.4812 -14.0526 94.9626
lradius 27.343
lwrist 2.15362
lhand -11.3878 -27.7885
lfingers 7.12502
lthumb 14.6469 1.67421
rfemur -16.0327 7.05291 30.8804
rtibia 29.9964
rfoot -17.1191 1.50218
rtoes -15.2253
lfemur -29.8836 12.3142 -16.508
ltibia 72.1514
lfoot -12.3252 13.2567
ltoes -10.3777
413
root 9.46815 17.3476 34.9421 5.66677 -1.45598 -5.5908
lowerback -4.17529 0.051594 1.62243
upperback -0.760175 -0.0723724 3.92249
thorax 1.5638 -0.035954 3.12319
lowerneck -23.3838 -4.28902 -12.249
upperneck 23.9653 -5.02601 11.9643
head 12.4679 -1.81378 5.80337
rclavicle -4.47266e-015 -7.15625e-015
rhumerus -36.1819 10.1336 -85.5536
rradius 31.3049
rwrist -14.9378
rhand -26.6732 -30.4453
rfingers 7.12502
rthumb -0.104488 -60.425
lclavicle -4.47266e-015 -7.15625e-015
lhumerus -34.532 -13.9344 94.4743
lradius 26.9096
lwrist 2.60167
lhand -12.0305 -27.6718
lfingers 7.12502
lthumb 14.0276 1.83486
rfemur -15.5021 8.1102 32.5313
rtibia 29.3965
rfoot -16.5217 0.962335
rtoes -13.626
lfemur -32.0331 12.7075 -15.1284
ltibia 71.5866
lfoot -12.5551 13.0298
ltoes -10.372
414
root 9.45546 17.345 35.0882 5.21059 -1.89057 -4.56256
lowerback -3.93496 0.176894 0.345649
upperback -0.158768 0.143152 3.60505
thorax 2.03608 0.058576 3.52848
lowerneck -24.1167 -4.25443 -11.6305
upperneck 23.8629 -4.94014 11.3736
head 12.5222 -1.77173 5.47266
rclavicle -2.68359e-015 2.90226e-014
rhumerus -34.7582 11.5313 -86.0164
rradius 32.4601
rwrist -14.9331
rhand -26.8734 -29.444
rfingers 7.12502
rthumb -0.297853 -59.4235
lclavicle -2.68359e-015 2.90226e-014
lhumerus -34.6474 -13.6133 94.0948
lradius 26.6477
lwrist 2.29727
lhand -13.4398 -28.3182
lfingers 7.12502
lthumb 12.6693 1.27752
rfemur -14.3768 8.57666 31.6274
rtibia 29.1462
rfoot -16.6871 0.335494
rtoes -13.1271
lfemur -32.8975 12.4759 -16.3695
ltibia 70.5028
lfoot -13.3677 13.0112
ltoes -7.2515
